<svg xmlns="http://www.w3.org/2000/svg" viewBox="0 0 96 96" role="img" aria-label="Sagemcom">
  <defs>
    <linearGradient id="sagemcom-favicon-gradient" x1="0%" y1="0%" x2="100%" y2="100%">
      <stop offset="0%" stop-color="#177cf4" />
      <stop offset="52%" stop-color="#1fd2d6" />
      <stop offset="100%" stop-color="#177cf4" />
    </linearGradient>
  </defs>
  <rect x="2" y="2" width="92" height="92" rx="28" fill="url(#sagemcom-favicon-gradient)" />
  <path d="M63.6 27.8c-4.4-4.5-10.7-6.8-18.6-6.8-13.2 0-22.9 7.8-22.9 18.5 0 8.7 5.8 14 16.1 15.8l8.7 1.5c5.3.9 7.6 2.4 7.6 5.6 0 3.7-3.5 6.1-9 6.1-6.1 0-10.7-2.4-14-7.2l-9.8 7.3c4.8 7.3 12.9 11.4 23.1 11.4 14.4 0 24.3-8 24.3-19.3 0-9.1-5.6-14-17.1-16l-8.6-1.5c-4.8-.8-6.9-2.1-6.9-5.1 0-3.3 3.1-5.6 7.8-5.6 4.8 0 8.7 1.7 12 5.2l7.3-9c0-.1-.1-.3-.1-.4Z" fill="#ffffff" />
</svg>